<svg width="1600" height="900" viewBox="0 0 1600 900" fill="none" xmlns="http://www.w3.org/2000/svg">
  <rect width="1600" height="900" fill="#F4F3EE"/>
  <circle cx="246" cy="198" r="182" fill="url(#paint0_radial)" fill-opacity="0.55"/>
  <circle cx="1332" cy="192" r="228" fill="url(#paint1_radial)" fill-opacity="0.7"/>
  <rect x="118" y="120" width="1364" height="660" rx="48" fill="white" fill-opacity="0.34" stroke="white" stroke-opacity="0.62"/>
  <path d="M260 621C438.109 460.224 594.293 398.391 728.551 435.5C856.253 470.796 964.103 615.34 1110.44 613.04C1198.42 611.657 1283.94 558.548 1367 451" stroke="url(#paint2_linear)" stroke-width="2.4" stroke-linecap="round" stroke-dasharray="4 12"/>
  <path d="M279 300H1321" stroke="#DCE5EA" stroke-width="1.2"/>
  <path d="M279 364H1321" stroke="#E5ECEF" stroke-width="1.2"/>
  <path d="M279 428H1321" stroke="#E5ECEF" stroke-width="1.2"/>
  <path d="M279 492H1321" stroke="#E5ECEF" stroke-width="1.2"/>
  <path d="M279 556H1321" stroke="#E5ECEF" stroke-width="1.2"/>
  <path d="M279 620H1321" stroke="#DCE5EA" stroke-width="1.2"/>
  <defs>
    <radialGradient id="paint0_radial" cx="0" cy="0" r="1" gradientUnits="userSpaceOnUse" gradientTransform="translate(246 198) rotate(90) scale(182)">
      <stop stop-color="#C6D3DD"/>
      <stop offset="1" stop-color="#C6D3DD" stop-opacity="0"/>
    </radialGradient>
    <radialGradient id="paint1_radial" cx="0" cy="0" r="1" gradientUnits="userSpaceOnUse" gradientTransform="translate(1332 192) rotate(90) scale(228)">
      <stop stop-color="#E6EDF1"/>
      <stop offset="1" stop-color="#E6EDF1" stop-opacity="0"/>
    </radialGradient>
    <linearGradient id="paint2_linear" x1="260" y1="525" x2="1367" y2="525" gradientUnits="userSpaceOnUse">
      <stop stop-color="#AABBC8"/>
      <stop offset="1" stop-color="#71879A"/>
    </linearGradient>
  </defs>
</svg>
