<svg width="900" height="1200" viewBox="0 0 900 1200" fill="none" xmlns="http://www.w3.org/2000/svg">
  <rect width="900" height="1200" fill="#EFF2F4"/>
  <circle cx="666" cy="204" r="194" fill="url(#paint0_radial)" fill-opacity="0.86"/>
  <circle cx="188" cy="994" r="240" fill="url(#paint1_radial)" fill-opacity="0.62"/>
  <rect x="78" y="80" width="744" height="1040" rx="36" fill="white" fill-opacity="0.4" stroke="white" stroke-opacity="0.62"/>
  <ellipse cx="458" cy="420" rx="148" ry="168" fill="#D9E2E8"/>
  <path d="M311 800C311 672.423 414.423 569 542 569H542C669.577 569 773 672.423 773 800V913H311V800Z" fill="#C7D3DC"/>
  <path d="M256 948C290.694 877.48 359.608 829 439.846 829H605.154C685.392 829 754.306 877.48 789 948V1034H256V948Z" fill="#EDF2F5"/>
  <path d="M204 207H698" stroke="#D6E0E6" stroke-width="2" stroke-dasharray="4 12"/>
  <path d="M204 983H698" stroke="#D6E0E6" stroke-width="2" stroke-dasharray="4 12"/>
  <defs>
    <radialGradient id="paint0_radial" cx="0" cy="0" r="1" gradientUnits="userSpaceOnUse" gradientTransform="translate(666 204) rotate(90) scale(194)">
      <stop stop-color="#D5E1E9"/>
      <stop offset="1" stop-color="#D5E1E9" stop-opacity="0"/>
    </radialGradient>
    <radialGradient id="paint1_radial" cx="0" cy="0" r="1" gradientUnits="userSpaceOnUse" gradientTransform="translate(188 994) rotate(90) scale(240)">
      <stop stop-color="#C6D5DE"/>
      <stop offset="1" stop-color="#C6D5DE" stop-opacity="0"/>
    </radialGradient>
  </defs>
</svg>
